<svg width="16" height="16" viewBox="0 0 16 16" fill="none" xmlns="http://www.w3.org/2000/svg">
<path d="M7.99986 5.33333V7.99999M7.99986 10.6667H8.00653M6.85986 1.90666L1.21319 11.3333C1.09677 11.5349 1.03517 11.7635 1.03452 11.9963C1.03387 12.2292 1.09419 12.4581 1.20948 12.6603C1.32477 12.8626 1.49101 13.0312 1.69167 13.1492C1.89232 13.2673 2.12039 13.3308 2.35319 13.3333H13.6465C13.8793 13.3308 14.1074 13.2673 14.3081 13.1492C14.5087 13.0312 14.675 12.8626 14.7902 12.6603C14.9055 12.4581 14.9659 12.2292 14.9652 11.9963C14.9646 11.7635 14.903 11.5349 14.7865 11.3333L9.13986 1.90666C9.02101 1.71073 8.85368 1.54874 8.65399 1.43632C8.45431 1.32389 8.22902 1.26483 7.99986 1.26483C7.7707 1.26483 7.54542 1.32389 7.34573 1.43632C7.14605 1.54874 6.97871 1.71073 6.85986 1.90666Z" stroke="#F05252" stroke-width="1.6" stroke-linecap="round" stroke-linejoin="round"/>
</svg>
