<svg width="16" height="16" viewBox="0 0 16 16" fill="none" xmlns="http://www.w3.org/2000/svg">
<g clip-path="url(#clip0_2_47)">
<path d="M3.00004 14.6667V11.3333M3.00004 4.66667V1.33334M1.33337 3H4.66671M1.33337 13H4.66671M8.66671 2L7.51059 5.00591C7.32258 5.49473 7.22858 5.73914 7.08239 5.94473C6.95283 6.12693 6.79364 6.28613 6.61143 6.41569C6.40585 6.56187 6.16143 6.65588 5.67261 6.84388L2.66671 8L5.67262 9.15612C6.16144 9.34413 6.40585 9.43813 6.61143 9.58432C6.79364 9.71388 6.95283 9.87307 7.08239 10.0553C7.22858 10.2609 7.32258 10.5053 7.51059 10.9941L8.66671 14L9.82283 10.9941C10.0108 10.5053 10.1048 10.2609 10.251 10.0553C10.3806 9.87307 10.5398 9.71388 10.722 9.58432C10.9276 9.43813 11.172 9.34413 11.6608 9.15612L14.6667 8L11.6608 6.84388C11.172 6.65588 10.9276 6.56187 10.722 6.41569C10.5398 6.28613 10.3806 6.12693 10.251 5.94473C10.1048 5.73914 10.0108 5.49473 9.82283 5.00591L8.66671 2Z" stroke="white" stroke-width="1.6" stroke-linecap="round" stroke-linejoin="round"/>
</g>
<defs>
<clipPath id="clip0_2_47">
<rect width="16" height="16" fill="white"/>
</clipPath>
</defs>
</svg>
